<?xml version="1.0" encoding="UTF-8"?>
<svg width="717px" height="100px" viewBox="0 0 717 100" version="1.1" xmlns="http://www.w3.org/2000/svg" xmlns:xlink="http://www.w3.org/1999/xlink">
    <!-- Generator: Sketch 50.2 (55047) - http://www.bohemiancoding.com/sketch -->
    <title>free-logo-maker---get-custom-logo-designs-in-minutes---logojoy (1)</title>
    <desc>Created with Sketch.</desc>
    <defs></defs>
    <g id="Page-1" stroke="none" stroke-width="1" fill="none" fill-rule="evenodd">
        <g id="free-logo-maker---get-custom-logo-designs-in-minutes---logojoy-(1)" transform="translate(-1.000000, -2.000000)" fill-rule="nonzero">
            <g id="SvgjsG1027" transform="translate(0.983348, 0.807670)" fill="#4F7BFF">
                <g id="Group" transform="translate(0.000000, 0.759334)">
                    <path d="M96.1339909,0.446442682 C95.7080089,0.483666295 95.2921716,0.597076442 94.9062736,0.781274694 L2.04619563,44.830286 C0.779298453,45.4367719 -0.0145541084,46.7294509 0.0175422641,48.1336672 C0.0496386365,49.5378835 0.901725176,50.792941 2.19500985,51.3409085 L35.343379,65.0689614 L49.0714915,98.2173901 C49.6015191,99.5365518 50.8633771,100.415804 52.284464,100.456163 C53.7055508,100.496522 55.0152763,99.6903025 55.6193175,98.4033484 L99.6683288,5.54332997 C100.220419,4.38658018 100.110389,3.02269623 99.3800072,1.96940829 C98.649625,0.916120346 97.4108767,0.334924527 96.1339909,0.446442682 Z M88.8792973,11.5331026 L52.6058294,88.0236155 L41.4075588,60.9766892 C41.0450099,60.1006292 40.3490339,59.4046531 39.4729738,59.0421043 L12.3515809,47.806511 L88.8792973,11.5331026 Z" id="Shape"></path>
                </g>
            </g>
            <g id="SvgjsG1028" transform="translate(127.363130, 5.072634)" fill="#000000">
                <path d="M29.9161978,57.3687087 L42.1173137,57.3687087 L42.1173137,68.279322 C42.1173137,81.4189853 35.5474821,88.9273644 22.8770924,88.9273644 C10.2067028,88.9273644 3.6368711,81.4189853 3.6368711,68.279322 L3.6368711,25.5754161 C3.6368711,12.4357528 10.2067028,4.92737375 22.8770924,4.92737375 C35.5474821,4.92737375 42.1173137,12.4357528 42.1173137,25.5754161 L42.1173137,33.5530689 L29.9161978,33.5530689 L29.9161978,24.7541872 C29.9161978,18.888266 27.3351925,16.659216 23.2290477,16.659216 C19.1229029,16.659216 16.5418976,18.888266 16.5418976,24.7541872 L16.5418976,69.1005509 C16.5418976,74.9664721 19.1229029,77.0782037 23.2290477,77.0782037 C27.3351925,77.0782037 29.9161978,74.9664721 29.9161978,69.1005509 L29.9161978,57.3687087 Z M113.901524,87.988817 L100.76186,87.988817 C100.05795,85.8770854 99.588676,84.5865827 99.588676,77.8994326 L99.588676,64.9944061 C99.588676,57.3687087 97.0076707,54.5530665 91.1417496,54.5530665 L86.6836495,54.5530665 L86.6836495,87.988817 L73.778623,87.988817 L73.778623,5.86592113 L93.2534812,5.86592113 C106.627781,5.86592113 112.376384,12.0837975 112.376384,24.7541872 L112.376384,31.2067004 C112.376384,39.6536268 109.67806,45.0502743 103.929458,47.748598 L103.929458,47.9832349 C110.381971,50.6815586 112.493702,56.7821166 112.493702,65.3463614 L112.493702,78.016751 C112.493702,82.0055774 112.611021,84.938538 113.901524,87.988817 Z M92.9015259,17.5977634 L86.6836495,17.5977634 L86.6836495,42.8212243 L91.7283417,42.8212243 C96.538397,42.8212243 99.4713576,40.7094927 99.4713576,34.139661 L99.4713576,26.0446898 C99.4713576,20.1787687 97.4769444,17.5977634 92.9015259,17.5977634 Z M156.825401,87.988817 L156.825401,60.7709429 L140.518141,5.86592113 L154.009759,5.86592113 L163.747188,43.2904979 L163.981825,43.2904979 L173.719254,5.86592113 L186.037689,5.86592113 L169.730428,60.7709429 L169.730428,87.988817 L156.825401,87.988817 Z M234.006259,5.86592113 C246.911285,5.86592113 253.24648,13.0223449 253.24648,26.1620082 L253.24648,36.8379847 C253.24648,49.977648 246.911285,57.1340718 234.006259,57.1340718 L227.905701,57.1340718 L227.905701,87.988817 L215.000674,87.988817 L215.000674,5.86592113 L234.006259,5.86592113 Z M234.006259,17.5977634 L227.905701,17.5977634 L227.905701,45.4022296 L234.006259,45.4022296 C238.112404,45.4022296 240.341454,43.5251348 240.341454,37.6592137 L240.341454,25.3407793 C240.341454,19.4748582 238.112404,17.5977634 234.006259,17.5977634 Z M279.276505,17.5977634 L279.276505,5.86592113 L319.164769,5.86592113 L319.164769,17.5977634 L305.67315,17.5977634 L305.67315,87.988817 L292.768124,87.988817 L292.768124,17.5977634 L279.276505,17.5977634 Z M360.446189,24.7541872 L360.446189,69.1005509 C360.446189,74.9664721 363.027194,77.1955221 367.133339,77.1955221 C371.239484,77.1955221 373.820489,74.9664721 373.820489,69.1005509 L373.820489,24.7541872 C373.820489,18.888266 371.239484,16.659216 367.133339,16.659216 C363.027194,16.659216 360.446189,18.888266 360.446189,24.7541872 Z M347.541162,68.279322 L347.541162,25.5754161 C347.541162,12.4357528 354.462949,4.92737375 367.133339,4.92737375 C379.803728,4.92737375 386.725515,12.4357528 386.725515,25.5754161 L386.725515,68.279322 C386.725515,81.4189853 379.803728,88.9273644 367.133339,88.9273644 C354.462949,88.9273644 347.541162,81.4189853 347.541162,68.279322 Z M418.856098,87.988817 L418.856098,5.86592113 L431.761125,5.86592113 L431.761125,76.2569747 L452.995759,76.2569747 L452.995759,87.988817 L418.856098,87.988817 Z M511.053714,5.86592113 L524.193377,87.988817 L511.171032,87.988817 L508.941982,73.0893773 L493.103995,73.0893773 L490.874945,87.988817 L479.025784,87.988817 L492.165448,5.86592113 L511.053714,5.86592113 Z M500.847011,20.4134055 L494.746453,61.9441271 L507.182206,61.9441271 L501.081648,20.4134055 L500.847011,20.4134055 Z M552.335134,25.5754161 C552.335134,12.4357528 558.787647,4.92737375 571.340718,4.92737375 C583.893789,4.92737375 590.346303,12.4357528 590.346303,25.5754161 L590.346303,28.1564214 L578.145187,28.1564214 L578.145187,24.7541872 C578.145187,18.888266 575.798818,16.659216 571.692673,16.659216 C567.586529,16.659216 565.24016,18.888266 565.24016,24.7541872 C565.24016,30.7374267 567.821166,35.1955268 576.268092,42.5865874 C587.061387,52.0893796 590.463621,58.8938482 590.463621,68.279322 C590.463621,81.4189853 583.893789,88.9273644 571.2234,88.9273644 C558.55301,88.9273644 551.983178,81.4189853 551.983178,68.279322 L551.983178,63.2346298 L564.184294,63.2346298 L564.184294,69.1005509 C564.184294,74.9664721 566.7653,77.0782037 570.871445,77.0782037 C574.977589,77.0782037 577.558595,74.9664721 577.558595,69.1005509 C577.558595,63.1173114 574.977589,58.6592113 566.530663,51.2681507 C555.737368,41.7653585 552.335134,34.9608899 552.335134,25.5754161 Z" id="Shape"></path>
            </g>
        </g>
    </g>
</svg>